<mxfile host="app.diagrams.net" modified="2024-02-26T17:52:00.971Z" agent="Mozilla/5.0 (X11; Linux x86_64) AppleWebKit/537.36 (KHTML, like Gecko) Chrome/121.0.0.0 Safari/537.36" etag="aycOpvA9kIAKiIvJU7F4" version="23.1.5" type="github">
  <diagram name="Page-1" id="JYbs11t9ryjo1EgZ7XiE">
    <mxGraphModel dx="880" dy="401" grid="1" gridSize="10" guides="1" tooltips="1" connect="1" arrows="1" fold="1" page="1" pageScale="1" pageWidth="850" pageHeight="1100" math="0" shadow="0">
      <root>
        <mxCell id="0" />
        <mxCell id="1" parent="0" />
        <mxCell id="swXPmgl8tlThJymdKRV6-1" value="" style="endArrow=classic;html=1;rounded=0;" edge="1" parent="1" target="swXPmgl8tlThJymdKRV6-2">
          <mxGeometry width="50" height="50" relative="1" as="geometry">
            <mxPoint x="40" y="400" as="sourcePoint" />
            <mxPoint x="100" y="400" as="targetPoint" />
          </mxGeometry>
        </mxCell>
        <mxCell id="swXPmgl8tlThJymdKRV6-2" value="" style="ellipse;whiteSpace=wrap;html=1;aspect=fixed;" vertex="1" parent="1">
          <mxGeometry x="100" y="390" width="20" height="20" as="geometry" />
        </mxCell>
        <mxCell id="swXPmgl8tlThJymdKRV6-3" value="" style="endArrow=classic;html=1;rounded=0;exitX=1;exitY=0.5;exitDx=0;exitDy=0;" edge="1" parent="1" source="swXPmgl8tlThJymdKRV6-2" target="swXPmgl8tlThJymdKRV6-4">
          <mxGeometry width="50" height="50" relative="1" as="geometry">
            <mxPoint x="170" y="410" as="sourcePoint" />
            <mxPoint x="280" y="400" as="targetPoint" />
          </mxGeometry>
        </mxCell>
        <mxCell id="swXPmgl8tlThJymdKRV6-4" value="" style="ellipse;whiteSpace=wrap;html=1;aspect=fixed;" vertex="1" parent="1">
          <mxGeometry x="330" y="390" width="20" height="20" as="geometry" />
        </mxCell>
        <mxCell id="swXPmgl8tlThJymdKRV6-5" value="" style="endArrow=classic;html=1;rounded=0;exitX=1;exitY=0.5;exitDx=0;exitDy=0;" edge="1" parent="1" source="swXPmgl8tlThJymdKRV6-4" target="swXPmgl8tlThJymdKRV6-6">
          <mxGeometry width="50" height="50" relative="1" as="geometry">
            <mxPoint x="350" y="400" as="sourcePoint" />
            <mxPoint x="380" y="400" as="targetPoint" />
          </mxGeometry>
        </mxCell>
        <mxCell id="swXPmgl8tlThJymdKRV6-6" value="" style="ellipse;whiteSpace=wrap;html=1;aspect=fixed;" vertex="1" parent="1">
          <mxGeometry x="415" y="390" width="20" height="20" as="geometry" />
        </mxCell>
        <mxCell id="swXPmgl8tlThJymdKRV6-7" value="" style="endArrow=classic;html=1;rounded=0;exitX=1;exitY=0.5;exitDx=0;exitDy=0;" edge="1" parent="1" source="swXPmgl8tlThJymdKRV6-6" target="swXPmgl8tlThJymdKRV6-8">
          <mxGeometry width="50" height="50" relative="1" as="geometry">
            <mxPoint x="440" y="390" as="sourcePoint" />
            <mxPoint x="500" y="400" as="targetPoint" />
          </mxGeometry>
        </mxCell>
        <mxCell id="swXPmgl8tlThJymdKRV6-8" value="" style="ellipse;whiteSpace=wrap;html=1;aspect=fixed;" vertex="1" parent="1">
          <mxGeometry x="520" y="390" width="20" height="20" as="geometry" />
        </mxCell>
        <mxCell id="swXPmgl8tlThJymdKRV6-9" value="" style="endArrow=classic;html=1;rounded=0;exitX=1;exitY=0.5;exitDx=0;exitDy=0;" edge="1" parent="1" source="swXPmgl8tlThJymdKRV6-8" target="swXPmgl8tlThJymdKRV6-10">
          <mxGeometry width="50" height="50" relative="1" as="geometry">
            <mxPoint x="560" y="400" as="sourcePoint" />
            <mxPoint x="620" y="400" as="targetPoint" />
          </mxGeometry>
        </mxCell>
        <mxCell id="swXPmgl8tlThJymdKRV6-10" value="" style="ellipse;whiteSpace=wrap;html=1;aspect=fixed;" vertex="1" parent="1">
          <mxGeometry x="640" y="390" width="20" height="20" as="geometry" />
        </mxCell>
        <mxCell id="swXPmgl8tlThJymdKRV6-11" value="" style="endArrow=classic;html=1;rounded=0;exitX=1;exitY=0.5;exitDx=0;exitDy=0;" edge="1" parent="1" source="swXPmgl8tlThJymdKRV6-10">
          <mxGeometry width="50" height="50" relative="1" as="geometry">
            <mxPoint x="680" y="400" as="sourcePoint" />
            <mxPoint x="790" y="400" as="targetPoint" />
          </mxGeometry>
        </mxCell>
        <mxCell id="swXPmgl8tlThJymdKRV6-14" value="" style="endArrow=classic;html=1;rounded=0;exitX=0.5;exitY=1;exitDx=0;exitDy=0;" edge="1" parent="1" source="swXPmgl8tlThJymdKRV6-2" target="swXPmgl8tlThJymdKRV6-15">
          <mxGeometry width="50" height="50" relative="1" as="geometry">
            <mxPoint x="130" y="480" as="sourcePoint" />
            <mxPoint x="150" y="470" as="targetPoint" />
            <Array as="points">
              <mxPoint x="110" y="480" />
            </Array>
          </mxGeometry>
        </mxCell>
        <mxCell id="swXPmgl8tlThJymdKRV6-15" value="" style="ellipse;whiteSpace=wrap;html=1;aspect=fixed;" vertex="1" parent="1">
          <mxGeometry x="150" y="470" width="20" height="20" as="geometry" />
        </mxCell>
        <mxCell id="swXPmgl8tlThJymdKRV6-16" value="" style="shape=image;html=1;verticalAlign=top;verticalLabelPosition=bottom;labelBackgroundColor=#ffffff;imageAspect=0;aspect=fixed;image=https://cdn4.iconfinder.com/data/icons/socialcones/508/Gitlab-128.png" vertex="1" parent="1">
          <mxGeometry x="200" y="461" width="38" height="38" as="geometry" />
        </mxCell>
        <mxCell id="swXPmgl8tlThJymdKRV6-17" value="" style="endArrow=none;html=1;rounded=0;exitX=1;exitY=0.5;exitDx=0;exitDy=0;entryX=0;entryY=0.5;entryDx=0;entryDy=0;" edge="1" parent="1" source="swXPmgl8tlThJymdKRV6-15" target="swXPmgl8tlThJymdKRV6-16">
          <mxGeometry width="50" height="50" relative="1" as="geometry">
            <mxPoint x="188" y="461" as="sourcePoint" />
            <mxPoint x="238" y="411" as="targetPoint" />
          </mxGeometry>
        </mxCell>
        <mxCell id="swXPmgl8tlThJymdKRV6-18" value="" style="shadow=0;dashed=0;html=1;strokeColor=none;fillColor=#4495D1;labelPosition=center;verticalLabelPosition=bottom;verticalAlign=top;align=center;outlineConnect=0;shape=mxgraph.veeam.automated_testing;" vertex="1" parent="1">
          <mxGeometry x="260" y="465.5" width="30" height="29" as="geometry" />
        </mxCell>
        <mxCell id="swXPmgl8tlThJymdKRV6-19" value="" style="endArrow=none;html=1;rounded=0;" edge="1" parent="1" target="swXPmgl8tlThJymdKRV6-18">
          <mxGeometry width="50" height="50" relative="1" as="geometry">
            <mxPoint x="238" y="480" as="sourcePoint" />
            <mxPoint x="288" y="430" as="targetPoint" />
          </mxGeometry>
        </mxCell>
        <mxCell id="swXPmgl8tlThJymdKRV6-20" value="" style="endArrow=classic;html=1;rounded=0;entryX=0.5;entryY=1;entryDx=0;entryDy=0;" edge="1" parent="1" source="swXPmgl8tlThJymdKRV6-18" target="swXPmgl8tlThJymdKRV6-4">
          <mxGeometry width="50" height="50" relative="1" as="geometry">
            <mxPoint x="300" y="480" as="sourcePoint" />
            <mxPoint x="360" y="430" as="targetPoint" />
            <Array as="points">
              <mxPoint x="340" y="480" />
            </Array>
          </mxGeometry>
        </mxCell>
        <mxCell id="swXPmgl8tlThJymdKRV6-21" value="" style="endArrow=classic;html=1;rounded=0;exitX=0.5;exitY=0;exitDx=0;exitDy=0;" edge="1" parent="1" source="swXPmgl8tlThJymdKRV6-4" target="swXPmgl8tlThJymdKRV6-22">
          <mxGeometry width="50" height="50" relative="1" as="geometry">
            <mxPoint x="400" y="320" as="sourcePoint" />
            <mxPoint x="520" y="240" as="targetPoint" />
            <Array as="points">
              <mxPoint x="340" y="240" />
            </Array>
          </mxGeometry>
        </mxCell>
        <mxCell id="swXPmgl8tlThJymdKRV6-22" value="" style="ellipse;whiteSpace=wrap;html=1;aspect=fixed;" vertex="1" parent="1">
          <mxGeometry x="520" y="230" width="20" height="20" as="geometry" />
        </mxCell>
        <mxCell id="swXPmgl8tlThJymdKRV6-23" value="" style="endArrow=classic;html=1;rounded=0;exitX=0.5;exitY=0;exitDx=0;exitDy=0;entryX=0.5;entryY=1;entryDx=0;entryDy=0;dashed=1;" edge="1" parent="1" source="swXPmgl8tlThJymdKRV6-8" target="swXPmgl8tlThJymdKRV6-22">
          <mxGeometry width="50" height="50" relative="1" as="geometry">
            <mxPoint x="530" y="380" as="sourcePoint" />
            <mxPoint x="580" y="330" as="targetPoint" />
          </mxGeometry>
        </mxCell>
        <mxCell id="swXPmgl8tlThJymdKRV6-24" value="" style="endArrow=classic;html=1;rounded=0;exitX=1;exitY=0.5;exitDx=0;exitDy=0;" edge="1" parent="1" source="swXPmgl8tlThJymdKRV6-22">
          <mxGeometry width="50" height="50" relative="1" as="geometry">
            <mxPoint x="570" y="240" as="sourcePoint" />
            <mxPoint x="640" y="240" as="targetPoint" />
          </mxGeometry>
        </mxCell>
        <mxCell id="swXPmgl8tlThJymdKRV6-25" value="" style="endArrow=classic;html=1;rounded=0;exitX=0.5;exitY=0;exitDx=0;exitDy=0;" edge="1" parent="1" source="swXPmgl8tlThJymdKRV6-6" target="swXPmgl8tlThJymdKRV6-26">
          <mxGeometry width="50" height="50" relative="1" as="geometry">
            <mxPoint x="415" y="390" as="sourcePoint" />
            <mxPoint x="720" y="160" as="targetPoint" />
            <Array as="points">
              <mxPoint x="425" y="320" />
              <mxPoint x="560" y="320" />
              <mxPoint x="560" y="160" />
            </Array>
          </mxGeometry>
        </mxCell>
        <mxCell id="swXPmgl8tlThJymdKRV6-26" value="" style="ellipse;whiteSpace=wrap;html=1;aspect=fixed;" vertex="1" parent="1">
          <mxGeometry x="720" y="150" width="20" height="20" as="geometry" />
        </mxCell>
        <mxCell id="swXPmgl8tlThJymdKRV6-27" value="" style="endArrow=classic;html=1;rounded=0;exitX=1;exitY=0.5;exitDx=0;exitDy=0;" edge="1" parent="1" source="swXPmgl8tlThJymdKRV6-26">
          <mxGeometry width="50" height="50" relative="1" as="geometry">
            <mxPoint x="760" y="160" as="sourcePoint" />
            <mxPoint x="810" y="160" as="targetPoint" />
          </mxGeometry>
        </mxCell>
        <mxCell id="swXPmgl8tlThJymdKRV6-28" value="" style="endArrow=classic;html=1;rounded=0;exitX=0.5;exitY=0;exitDx=0;exitDy=0;entryX=0.5;entryY=1;entryDx=0;entryDy=0;dashed=1;" edge="1" parent="1" source="swXPmgl8tlThJymdKRV6-10" target="swXPmgl8tlThJymdKRV6-26">
          <mxGeometry width="50" height="50" relative="1" as="geometry">
            <mxPoint x="650" y="380" as="sourcePoint" />
            <mxPoint x="700" y="330" as="targetPoint" />
            <Array as="points">
              <mxPoint x="650" y="320" />
              <mxPoint x="730" y="320" />
            </Array>
          </mxGeometry>
        </mxCell>
        <mxCell id="swXPmgl8tlThJymdKRV6-29" value="Main Branch" style="text;html=1;align=center;verticalAlign=middle;whiteSpace=wrap;rounded=0;" vertex="1" parent="1">
          <mxGeometry x="140" y="370" width="120" height="30" as="geometry" />
        </mxCell>
        <mxCell id="swXPmgl8tlThJymdKRV6-30" value="Feature Branch" style="text;html=1;align=center;verticalAlign=middle;whiteSpace=wrap;rounded=0;" vertex="1" parent="1">
          <mxGeometry x="100" y="499" width="220" height="30" as="geometry" />
        </mxCell>
        <mxCell id="swXPmgl8tlThJymdKRV6-31" value="Stable-release-v1.0.0" style="text;html=1;align=center;verticalAlign=middle;whiteSpace=wrap;rounded=0;" vertex="1" parent="1">
          <mxGeometry x="270" y="210" width="180" height="30" as="geometry" />
        </mxCell>
        <mxCell id="swXPmgl8tlThJymdKRV6-32" value="v1.0.1" style="text;html=1;align=center;verticalAlign=middle;whiteSpace=wrap;rounded=0;" vertex="1" parent="1">
          <mxGeometry x="490" y="200" width="60" height="30" as="geometry" />
        </mxCell>
        <mxCell id="swXPmgl8tlThJymdKRV6-33" value="Cherry-pick" style="text;html=1;align=center;verticalAlign=middle;whiteSpace=wrap;rounded=0;" vertex="1" parent="1">
          <mxGeometry x="425" y="270" width="95" height="30" as="geometry" />
        </mxCell>
        <mxCell id="swXPmgl8tlThJymdKRV6-34" value="Cherry-pick" style="text;html=1;align=center;verticalAlign=middle;whiteSpace=wrap;rounded=0;" vertex="1" parent="1">
          <mxGeometry x="640" y="270" width="95" height="30" as="geometry" />
        </mxCell>
        <mxCell id="swXPmgl8tlThJymdKRV6-35" value="Stable-release-v2.0.0" style="text;html=1;align=center;verticalAlign=middle;whiteSpace=wrap;rounded=0;" vertex="1" parent="1">
          <mxGeometry x="500" y="130" width="180" height="30" as="geometry" />
        </mxCell>
        <mxCell id="swXPmgl8tlThJymdKRV6-36" value="v2.0.1" style="text;html=1;align=center;verticalAlign=middle;whiteSpace=wrap;rounded=0;" vertex="1" parent="1">
          <mxGeometry x="700" y="120" width="60" height="30" as="geometry" />
        </mxCell>
        <mxCell id="swXPmgl8tlThJymdKRV6-37" value="Bug Fix" style="text;html=1;align=center;verticalAlign=middle;whiteSpace=wrap;rounded=0;" vertex="1" parent="1">
          <mxGeometry x="500" y="420" width="60" height="30" as="geometry" />
        </mxCell>
        <mxCell id="swXPmgl8tlThJymdKRV6-38" value="GitLab Flow With Release Branches" style="text;html=1;align=center;verticalAlign=middle;whiteSpace=wrap;rounded=0;fontSize=24;" vertex="1" parent="1">
          <mxGeometry x="200" y="70" width="450" height="30" as="geometry" />
        </mxCell>
      </root>
    </mxGraphModel>
  </diagram>
</mxfile>
